<?xml version="1.0" encoding="utf-8"?>
<!-- Generator: Adobe Illustrator 18.0.0, SVG Export Plug-In . SVG Version: 6.00 Build 0)  -->
<!DOCTYPE svg PUBLIC "-//W3C//DTD SVG 1.1//EN" "http://www.w3.org/Graphics/SVG/1.1/DTD/svg11.dtd">
<svg version="1.1" xmlns="http://www.w3.org/2000/svg" xmlns:xlink="http://www.w3.org/1999/xlink" x="0px" y="0px"
	 viewBox="0 0 1080 1920" enable-background="new 0 0 1080 1920" xml:space="preserve">
<g id="Слой_2" display="none">
	<path display="inline" fill="#407A3B" stroke="#1D1D1B" stroke-miterlimit="10" d="M856,1369H215c-6.6,0-12-5.4-12-12V572
		c0-6.6,5.4-12,12-12h641c6.6,0,12,5.4,12,12v785C868,1363.6,862.6,1369,856,1369z"/>
</g>
<g id="pill1">
	<path fill="#E2E2E2" d="M540,1295.9L540,1295.9c-68.8,0-125-56.3-125-125V749.1c0-68.7,56.2-125,125-125h0c68.7,0,125,56.2,125,125
		v421.9C665,1239.7,608.8,1295.9,540,1295.9z"/>
	<g>
		<path fill="#F7F7F7" d="M468.5,1213.5V706.5c0-39.3,32.2-71.5,71.5-71.5h0c-58.3,0-106,47.7-106,106v437.9
			c0,58.3,47.7,106,106,106h0C500.7,1284.9,468.5,1252.8,468.5,1213.5z"/>
	</g>
	<path fill="#E2E2E2" d="M540,1910.2L540,1910.2c-194.5,0-353.5-159.1-353.5-353.5V363.4C186.5,168.9,345.6,9.8,540,9.8h0
		c194.4,0,353.5,159.1,353.5,353.5v1193.2C893.5,1751.1,734.4,1910.2,540,1910.2z"/>
	<g>
		<path fill="#F7F7F7" d="M337.9,1676.9V243.1C337.9,131.9,428.8,41,540,41h0c-164.9,0-299.8,134.9-299.8,299.8v1238.5
			c0,164.9,134.9,299.8,299.8,299.8h0C428.8,1879,337.9,1788.1,337.9,1676.9z"/>
	</g>
</g>
<g id="pill2">
	<path fill="#EA7D7D" d="M540,624.1L540,624.1c-73.2,0-133,59.8-133,133V957c0,6.6,5.4,12,12,12h242c6.6,0,12-5.4,12-12V757.1
		C673,683.9,613.2,624.1,540,624.1z"/>
	<path display="none" fill="#FFFFFF" d="M540,1098L540,1098c-66.6,0-121-54.4-121-121V745.1c0-66.5,54.4-121,121-121h0
		c66.5,0,121,54.4,121,121V977C661,1043.6,606.6,1098,540,1098z"/>
	<path fill="#FFC2C2" d="M540,636L540,636c-64.3,0-117,53.2-117,118.1V960h35.2V754.1C458.2,689.1,495,636,540,636z"/>
	<path fill="#EA7D7D" d="M540,9.8L540,9.8C333.1,9.8,163.8,179.1,163.8,386v565.5c0,18.7,15.3,33.9,33.9,33.9h684.5
		c18.7,0,33.9-15.3,33.9-33.9V386C916.2,179.1,746.9,9.8,540,9.8z"/>
	<path fill="#FFC2C2" d="M540,43.5L540,43.5c-182,0-330.9,150.3-330.9,334.1V960h99.6V377.6C308.7,193.8,412.8,43.5,540,43.5z"/>
</g>
</svg>
