<?xml version="1.0" encoding="utf-8"?>
<!-- Generator: Adobe Illustrator 18.0.0, SVG Export Plug-In . SVG Version: 6.00 Build 0)  -->
<!DOCTYPE svg PUBLIC "-//W3C//DTD SVG 1.1//EN" "http://www.w3.org/Graphics/SVG/1.1/DTD/svg11.dtd">
<svg version="1.1" xmlns="http://www.w3.org/2000/svg" xmlns:xlink="http://www.w3.org/1999/xlink" x="0px" y="0px"
	 viewBox="0 0 1080 1080" enable-background="new 0 0 1080 1080" xml:space="preserve">
<g id="Layer_1" display="none">
	<rect display="inline" fill="#A469A9" stroke="#000000" stroke-miterlimit="10" width="1080" height="1080"/>
</g>
<g id="Layer_2">
	<circle fill="#FAF7F9" cx="540" cy="540" r="526.1"/>
	<circle fill="#E0E0E0" cx="540" cy="540" r="485.3"/>
	<path fill="#6E6E6D" d="M543.7,1025.3h-7.4c-13.6,0-24.8-11.1-24.8-24.8V79.4c0-13.6,11.1-24.8,24.8-24.8h7.4
		c13.6,0,24.8,11.1,24.8,24.8v921.2C568.4,1014.2,557.3,1025.3,543.7,1025.3z"/>
	<path fill="#504F4F" d="M528.8,1000.6V79.4c0-11.7,8.2-21.6,19.2-24.1c-1.8-0.4-3.6-0.7-5.6-0.7h-6.4c-13.4,0-24.4,11-24.4,24.4
		v921.9c0,13.4,11,24.4,24.4,24.4h6.4c1.9,0,3.8-0.2,5.6-0.7C537,1022.1,528.8,1012.3,528.8,1000.6z"/>
</g>
</svg>
