<!DOCTYPE svg PUBLIC "-//W3C//DTD SVG 1.1//EN" "http://www.w3.org/Graphics/SVG/1.1/DTD/svg11.dtd" [
	<!ENTITY ns_flows "http://ns.adobe.com/Flows/1.0/">
]><svg xmlns="http://www.w3.org/2000/svg" width="512" height="512" viewBox="-10.381 -23.069 512 512" enable-background="new -10.381 -23.069 512 512"><path fill="#F9F4EA" d="M245.62 425.83c-106.365 0-192.9-86.535-192.9-192.9s86.534-192.898 192.9-192.898 192.897 86.534 192.897 192.898-86.534 192.9-192.898 192.9z"/><path fill="#EFB600" d="M245.62 60.032c46.182 0 89.6 17.984 122.257 50.64s50.64 76.076 50.64 122.26-17.983 89.6-50.64 122.257-76.075 50.64-122.258 50.64c-46.184 0-89.603-17.984-122.26-50.64s-50.64-76.077-50.64-122.26c0-46.182 17.984-89.6 50.64-122.257s76.076-50.64 122.26-50.64m0-40c-117.582 0-212.9 95.317-212.9 212.897s95.318 212.898 212.9 212.898c117.58 0 212.897-95.318 212.897-212.898S363.2 20.032 245.62 20.032zM317.736 160.82c-18.453-18.472-43.953-29.89-72.117-29.89-43.73 0-81.02 27.517-95.526 66.178l23.88 8.958c10.876-28.998 38.85-49.636 71.645-49.636 21.13 0 40.235 8.566 54.094 22.405L271.12 207.43h76.5v-76.5l-29.884 29.89zM245.62 309.43c-21.13 0-40.243-8.56-54.096-22.404l28.595-28.595h-76.5v76.5l29.875-29.876c18.46 18.453 43.96 29.877 72.124 29.877 43.728 0 81.02-27.516 95.524-66.178l-23.88-8.958c-10.878 29-38.855 49.637-71.645 49.637"/></svg>